HIERARCHY
ROOT Root
{
  OFFSET 0.0 0.0 0.0
  CHANNELS 6 Xposition Yposition Zposition Zrotation Yrotation Xrotation
  JOINT Hips
  {
    OFFSET 0.0 100.0 0.0
    CHANNELS 6 Xposition Yposition Zposition Zrotation Yrotation Xrotation
    JOINT Spine1
    {
      OFFSET -0.013727 5.003763 -0.053727
      CHANNELS 3 Zrotation Yrotation Xrotation
      JOINT Spine2
      {
        OFFSET -0.0 7.125301 -0.029825
        CHANNELS 3 Zrotation Yrotation Xrotation
        JOINT Chest
        {
          OFFSET -1e-06 7.550063 -0.815971
          CHANNELS 3 Zrotation Yrotation Xrotation
          JOINT Neck1
          {
            OFFSET -0.181677 26.311295 -0.553348
            CHANNELS 3 Zrotation Yrotation Xrotation
            JOINT Neck2
            {
              OFFSET -3e-06 7.709397 2.302585
              CHANNELS 3 Zrotation Yrotation Xrotation
              JOINT Head
              {
                OFFSET -5e-06 6.128916 1.953709
                CHANNELS 3 Zrotation Yrotation Xrotation
                JOINT HeadEnd
                {
                  OFFSET 0.003598 16.065403 -1.835379
                  CHANNELS 3 Zrotation Yrotation Xrotation
                }
                JOINT Jaw
                {
                  OFFSET 0.002637 0.475592 3.094941
                  CHANNELS 3 Zrotation Yrotation Xrotation
                }
                JOINT LeftEye
                {
                  OFFSET 3.206381 5.380205 7.586883
                  CHANNELS 3 Zrotation Yrotation Xrotation
                }
                JOINT RightEye
                {
                  OFFSET -3.22244 5.361869 7.558234
                  CHANNELS 3 Zrotation Yrotation Xrotation
                }
              }
            }
          }
          JOINT LeftShoulder
          {
            OFFSET 1.621652 23.237164 5.113413
            CHANNELS 3 Zrotation Yrotation Xrotation
            JOINT LeftArm
            {
              OFFSET 14.919846 2e-06 -5.502326
              CHANNELS 3 Zrotation Yrotation Xrotation
              JOINT LeftForeArm
              {
                OFFSET 28.739307 0.0 -0.002588
                CHANNELS 3 Zrotation Yrotation Xrotation
                JOINT LeftHand
                {
                  OFFSET 27.093981 -1e-06 0.002609
                  CHANNELS 3 Zrotation Yrotation Xrotation
                  JOINT LeftHandThumb1
                  {
                    OFFSET 2.276482 -1.392045 3.191413
                    CHANNELS 3 Zrotation Yrotation Xrotation
                    JOINT LeftHandThumb2
                    {
                      OFFSET 4.012836 -1.828127 1.641654
                      CHANNELS 3 Zrotation Yrotation Xrotation
                      JOINT LeftHandThumb3
                      {
                        OFFSET 2.798515 0.0 -3e-06
                        CHANNELS 3 Zrotation Yrotation Xrotation
                        JOINT LeftHandThumbEnd
                        {
                          OFFSET 3.180793 -4e-06 4e-06
                          CHANNELS 3 Zrotation Yrotation Xrotation
                        }
                      }
                    }
                  }
                  JOINT LeftHandIndex1
                  {
                    OFFSET 3.247555 -0.531998 2.296169
                    CHANNELS 3 Zrotation Yrotation Xrotation
                    JOINT LeftHandIndex2
                    {
                      OFFSET 6.364578 0.01206 0.1786
                      CHANNELS 3 Zrotation Yrotation Xrotation
                      JOINT LeftHandIndex3
                      {
                        OFFSET 3.662364 0.0 0.0
                        CHANNELS 3 Zrotation Yrotation Xrotation
                        JOINT LeftHandIndex4
                        {
                          OFFSET 2.329242 4e-06 4e-06
                          CHANNELS 3 Zrotation Yrotation Xrotation
                          JOINT LeftHandIndexEnd
                          {
                            OFFSET 2.759615 -0.180537 -0.113024
                            CHANNELS 3 Zrotation Yrotation Xrotation
                          }
                        }
                      }
                    }
                  }
                  JOINT LeftHandMiddle1
                  {
                    OFFSET 3.163495 0.240981 1.000332
                    CHANNELS 3 Zrotation Yrotation Xrotation
                    JOINT LeftHandMiddle2
                    {
                      OFFSET 6.19078 -0.259278 -1.002548
                      CHANNELS 3 Zrotation Yrotation Xrotation
                      JOINT LeftHandMiddle3
                      {
                        OFFSET 4.35652 -4e-06 -1e-06
                        CHANNELS 3 Zrotation Yrotation Xrotation
                        JOINT LeftHandMiddle4
                        {
                          OFFSET 2.996877 -8e-06 0.0
                          CHANNELS 3 Zrotation Yrotation Xrotation
                          JOINT LeftHandMiddleEnd
                          {
                            OFFSET 2.304287 -0.294569 -0.031741
                            CHANNELS 3 Zrotation Yrotation Xrotation
                          }
                        }
                      }
                    }
                  }
                  JOINT LeftHandRing1
                  {
                    OFFSET 2.882643 -0.053652 -0.322543
                    CHANNELS 3 Zrotation Yrotation Xrotation
                    JOINT LeftHandRing2
                    {
                      OFFSET 5.854541 -0.486202 -1.373841
                      CHANNELS 3 Zrotation Yrotation Xrotation
                      JOINT LeftHandRing3
                      {
                        OFFSET 4.350578 0.0 3e-06
                        CHANNELS 3 Zrotation Yrotation Xrotation
                        JOINT LeftHandRing4
                        {
                          OFFSET 2.651321 7e-06 2e-06
                          CHANNELS 3 Zrotation Yrotation Xrotation
                          JOINT LeftHandRingEnd
                          {
                            OFFSET 1.936105 0.077687 -7.1e-05
                            CHANNELS 3 Zrotation Yrotation Xrotation
                          }
                        }
                      }
                    }
                  }
                  JOINT LeftHandPinky1
                  {
                    OFFSET 2.8655 -0.310005 -1.600378
                    CHANNELS 3 Zrotation Yrotation Xrotation
                    JOINT LeftHandPinky2
                    {
                      OFFSET 5.087849 -1.331141 -1.77123
                      CHANNELS 3 Zrotation Yrotation Xrotation
                      JOINT LeftHandPinky3
                      {
                        OFFSET 3.070974 4e-06 0.0
                        CHANNELS 3 Zrotation Yrotation Xrotation
                        JOINT LeftHandPinky4
                        {
                          OFFSET 1.549672 0.0 1e-06
                          CHANNELS 3 Zrotation Yrotation Xrotation
                          JOINT LeftHandPinkyEnd
                          {
                            OFFSET 1.944893 -0.157802 0.057219
                            CHANNELS 3 Zrotation Yrotation Xrotation
                          }
                        }
                      }
                    }
                  }
                }
              }
            }
          }
          JOINT RightShoulder
          {
            OFFSET -1.380118 23.180309 5.214158
            CHANNELS 3 Zrotation Yrotation Xrotation
            JOINT RightArm
            {
              OFFSET -15.037196 1.2e-05 -5.545604
              CHANNELS 3 Zrotation Yrotation Xrotation
              JOINT RightForeArm
              {
                OFFSET -28.736639 2e-06 -0.002597
                CHANNELS 3 Zrotation Yrotation Xrotation
                JOINT RightHand
                {
                  OFFSET -27.133619 -0.0 0.002613
                  CHANNELS 3 Zrotation Yrotation Xrotation
                  JOINT RightHandThumb1
                  {
                    OFFSET -2.274032 -1.383988 3.163127
                    CHANNELS 3 Zrotation Yrotation Xrotation
                    JOINT RightHandThumb2
                    {
                      OFFSET -4.011429 -1.827466 1.640914
                      CHANNELS 3 Zrotation Yrotation Xrotation
                      JOINT RightHandThumb3
                      {
                        OFFSET -2.794935 -4e-06 -3e-06
                        CHANNELS 3 Zrotation Yrotation Xrotation
                        JOINT RightHandThumbEnd
                        {
                          OFFSET -3.183852 4e-06 1e-06
                          CHANNELS 3 Zrotation Yrotation Xrotation
                        }
                      }
                    }
                  }
                  JOINT RightHandIndex1
                  {
                    OFFSET -3.253266 -0.520057 2.282866
                    CHANNELS 3 Zrotation Yrotation Xrotation
                    JOINT RightHandIndex2
                    {
                      OFFSET -6.341917 0.012471 0.178266
                      CHANNELS 3 Zrotation Yrotation Xrotation
                      JOINT RightHandIndex3
                      {
                        OFFSET -3.654871 -8e-06 -0.0
                        CHANNELS 3 Zrotation Yrotation Xrotation
                        JOINT RightHandIndex4
                        {
                          OFFSET -2.327586 0.0 1e-06
                          CHANNELS 3 Zrotation Yrotation Xrotation
                          JOINT RightHandIndexEnd
                          {
                            OFFSET -2.76179 -0.180656 -0.113078
                            CHANNELS 3 Zrotation Yrotation Xrotation
                          }
                        }
                      }
                    }
                  }
                  JOINT RightHandMiddle1
                  {
                    OFFSET -3.168106 0.246593 1.00103
                    CHANNELS 3 Zrotation Yrotation Xrotation
                    JOINT RightHandMiddle2
                    {
                      OFFSET -6.180828 -0.258836 -1.000895
                      CHANNELS 3 Zrotation Yrotation Xrotation
                      JOINT RightHandMiddle3
                      {
                        OFFSET -4.348901 0.0 -0.0
                        CHANNELS 3 Zrotation Yrotation Xrotation
                        JOINT RightHandMiddle4
                        {
                          OFFSET -3.00024 -4e-06 -2e-06
                          CHANNELS 3 Zrotation Yrotation Xrotation
                          JOINT RightHandMiddleEnd
                          {
                            OFFSET -2.30252 -0.29437 -0.031706
                            CHANNELS 3 Zrotation Yrotation Xrotation
                          }
                        }
                      }
                    }
                  }
                  JOINT RightHandRing1
                  {
                    OFFSET -2.88569 -0.067952 -0.308858
                    CHANNELS 3 Zrotation Yrotation Xrotation
                    JOINT RightHandRing2
                    {
                      OFFSET -5.854198 -0.48613 -1.373731
                      CHANNELS 3 Zrotation Yrotation Xrotation
                      JOINT RightHandRing3
                      {
                        OFFSET -4.33881 -4e-06 -0.0
                        CHANNELS 3 Zrotation Yrotation Xrotation
                        JOINT RightHandRing4
                        {
                          OFFSET -2.654903 -4e-06 4e-06
                          CHANNELS 3 Zrotation Yrotation Xrotation
                          JOINT RightHandRingEnd
                          {
                            OFFSET -1.933568 0.077527 -5.2e-05
                            CHANNELS 3 Zrotation Yrotation Xrotation
                          }
                        }
                      }
                    }
                  }
                  JOINT RightHandPinky1
                  {
                    OFFSET -2.866425 -0.342796 -1.584145
                    CHANNELS 3 Zrotation Yrotation Xrotation
                    JOINT RightHandPinky2
                    {
                      OFFSET -5.091371 -1.332055 -1.772385
                      CHANNELS 3 Zrotation Yrotation Xrotation
                      JOINT RightHandPinky3
                      {
                        OFFSET -3.062664 -4e-06 1e-06
                        CHANNELS 3 Zrotation Yrotation Xrotation
                        JOINT RightHandPinky4
                        {
                          OFFSET -1.546529 4e-06 -2e-06
                          CHANNELS 3 Zrotation Yrotation Xrotation
                          JOINT RightHandPinkyEnd
                          {
                            OFFSET -1.945119 -0.157718 0.057211
                            CHANNELS 3 Zrotation Yrotation Xrotation
                          }
                        }
                      }
                    }
                  }
                }
              }
            }
          }
        }
      }
    }
    JOINT LeftLeg
    {
      OFFSET 10.043214 -8.434526 2.595655
      CHANNELS 3 Zrotation Yrotation Xrotation
      JOINT LeftShin
      {
        OFFSET -1e-06 -43.221752 -0.802913
        CHANNELS 3 Zrotation Yrotation Xrotation
        JOINT LeftFoot
        {
          OFFSET 1e-06 -42.155094 -3.481523
          CHANNELS 3 Zrotation Yrotation Xrotation
          JOINT LeftToeBase
          {
            OFFSET 0.0 -5.059472 13.231529
            CHANNELS 3 Zrotation Yrotation Xrotation
            JOINT LeftToeEnd
            {
              OFFSET -0.009607 -1.647619 6.513017
              CHANNELS 3 Zrotation Yrotation Xrotation
            }
          }
        }
      }
    }
    JOINT RightLeg
    {
      OFFSET -10.047278 -8.29526 2.620317
      CHANNELS 3 Zrotation Yrotation Xrotation
      JOINT RightShin
      {
        OFFSET 1e-06 -43.362206 -0.805556
        CHANNELS 3 Zrotation Yrotation Xrotation
        JOINT RightFoot
        {
          OFFSET 2e-06 -42.117393 -3.478398
          CHANNELS 3 Zrotation Yrotation Xrotation
          JOINT RightToeBase
          {
            OFFSET -0.0 -5.079609 13.284196
            CHANNELS 3 Zrotation Yrotation Xrotation
            JOINT RightToeEnd
            {
              OFFSET 0.009532 -1.634378 6.460591
              CHANNELS 3 Zrotation Yrotation Xrotation
            }
          }
        }
      }
    }
  }
}
MOTION
Frames: 5
Frame Time: 0.03333333333333333
0.0 0.0 0.0 0.0 -0.0 0.0 4.06259 94.444527 -7.729311 1.671718 -2.711966 -4.553441 -1.341822 0.154299 4.912529 -0.918397 0.441638 -3.432968 0.08078 -3.126804 1.658203 0.760093 1.799631 2.582613 -0.784058 0.783371 -3.748946 -1.976281 0.632907 -7.975196 7.7e-05 -2.3e-05 6e-06 -0.026933 -0.009687 0.08321 0.705094 -3.707323 -10.608215 -0.766942 3.703327 -10.537205 21.782461 -11.443192 10.566154 20.201773 11.178373 -55.036854 -3.479229 -43.093586 2.375221 23.76474 2.267624 -30.939247 -5.882109 9.861288 0.702591 -10.936878 -0.360576 7.156209 1e-06 8.774827 -1e-06 -14.858957 17.521717 5.643186 -1.844033 2.498505 -2.507279 -10.163604 4.678946 4.621111 -20.976034 -4e-06 4e-06 -21.226299 2.451698 -3.594 1e-06 -6e-06 -0.0 -1.362682 2.240798 -0.746324 -21.334925 0.584909 3.008327 -13.821221 -3e-06 3e-06 -23.887184 -0.249078 -0.839481 -56.716953 2.385518 -0.900264 -0.294024 1.679688 0.833256 -14.218215 0.093214 1.300582 -34.212063 -0.287564 0.967174 -20.033222 0.964537 1.212846 1e-06 0.0 0.0 -3.440389 0.788233 0.501656 -15.928198 -3.167311 2.99971 -6.338829 -1e-06 2e-06 -18.123459 3.648183 -4.905672 -6e-06 0.0 -2e-06 -11.994781 10.905118 8.403772 -23.325554 1.607842 -56.498703 -1.442724 50.098873 -1.446811 -29.293251 1.059815 -28.792738 2.243541 -5.255038 -3.180158 14.282894 -0.826595 6.952507 -2e-06 -12.690609 -1e-06 17.224119 -15.874833 1.802137 1.665667 -1.955922 -2.878299 4.7278 -4.170588 4.993924 11.020526 2e-06 -1e-06 12.109052 -3.735717 -2.866785 0.0 -0.0 -0.0 1.291986 -1.92855 -1.49809 14.800129 0.567468 3.865609 14.242571 -1.341737 -6.66066 19.631966 0.143926 -0.648244 48.489922 -1.122732 -5.735765 0.353029 -1.511151 -0.03194 20.222794 3.684311 2.316632 18.787273 3e-06 0.0 10.751629 -0.479869 1.397907 -1e-06 -0.0 0.0 3.273808 0.305947 -0.58011 21.486816 11.830378 2.266136 8.162928 1e-06 1e-06 18.399084 -3.798988 -4.940577 2e-06 -1e-06 -0.0 22.470163 2.632651 -4.949532 -0.309927 -1.304004 29.955322 -23.651543 2.404621 4.596373 1.885816 -1.942144 -11.809172 0.0 -0.0 2e-06 -23.398125 -2.478205 -8.974163 0.099185 1.470227 29.961143 22.897308 5.754892 -1.755099 -1.455265 0.903537 -6.027726 -0.0 0.0 -1e-06 
0.0 0.0 0.0 0.0 -0.0 0.0 4.148233 98.971992 -7.514372 1.999304 -2.481726 -2.584785 -1.653887 0.296059 3.660392 -1.000433 0.258561 -4.01832 0.242931 -2.935541 1.402205 0.931311 1.811014 1.685146 -0.635991 0.734749 -3.79157 -2.260862 0.966682 -7.260035 7.7e-05 -2.2e-05 6e-06 -0.018774 -0.05842 0.080151 0.717396 -3.775302 -10.713782 -0.764145 3.676306 -10.627091 20.046673 -10.819706 11.438271 11.108154 10.745126 -48.674313 -2.391785 -39.0881 1.786797 21.469389 1.313747 -33.603039 -5.882105 9.861287 0.702591 -10.936871 -0.360576 7.156208 -0.0 8.774825 -1e-06 -14.429429 17.515778 6.442523 -1.844032 2.498505 -2.507278 -10.1636 4.678946 4.62111 -20.976023 -2e-06 5e-06 -21.226286 2.451698 -3.593997 0.0 -6e-06 0.0 -1.36268 2.240798 -0.746323 -21.334913 0.584909 3.008328 -13.821215 -2e-06 5e-06 -23.887171 -0.249077 -0.839479 -58.046925 2.257458 -0.778009 -0.294025 1.679687 0.833256 -14.21821 0.093214 1.300583 -34.212051 -0.287562 0.967175 -20.033213 0.964538 1.212847 -0.0 0.0 0.0 -3.440389 0.788232 0.501656 -15.928187 -3.167311 2.99971 -6.338829 -1e-06 2e-06 -18.123449 3.648183 -4.905667 -4e-06 0.0 -2e-06 -10.442307 10.126394 9.335208 -14.039432 -0.015065 -48.02803 -2.251788 47.234459 -0.411222 -28.818426 -1.226561 -32.898998 2.243542 -5.255037 -3.180157 14.28289 -0.826595 6.952503 0.0 -12.690601 -2e-06 17.110622 -16.523882 1.599746 1.665666 -1.955922 -2.878298 4.727798 -4.170586 4.993923 11.020526 2e-06 -0.0 12.109053 -3.735717 -2.866784 -1e-06 0.0 0.0 1.291986 -1.928549 -1.498089 14.800127 0.567467 3.865608 14.242571 -1.341736 -6.660656 19.631968 0.143925 -0.648244 49.129066 -0.958837 -6.240834 0.353029 -1.511151 -0.031941 20.222788 3.684309 2.316631 18.78727 4e-06 -0.0 10.751627 -0.479868 1.397906 -0.0 0.0 1e-06 3.273807 0.305947 -0.580111 21.486811 11.830371 2.266135 8.162928 2e-06 -1e-06 18.39908 -3.798985 -4.940576 3e-06 -0.0 -1e-06 19.896856 3.975176 -5.711064 -0.204379 -1.172508 24.927589 -17.025497 8.770466 13.767584 1.865565 -1.888016 -9.86432 -0.0 0.0 3e-06 -21.984232 -2.870433 -6.884425 -0.170047 1.114349 20.844915 20.840059 0.49919 7.450003 -1.454992 0.959248 -6.743896 0.0 0.0 -1e-06 
0.0 0.0 0.0 0.0 -0.0 0.0 4.218246 102.540245 -7.6729 2.49164 -2.319462 -1.336828 -1.93995 0.307162 3.322134 -0.959427 0.034749 -4.175266 0.205641 -2.775523 1.314322 0.75415 2.052346 0.468329 -0.527309 0.453888 -3.890997 -2.562189 1.244127 -7.375436 7.7e-05 -2.3e-05 6e-06 -0.012429 -0.120575 0.049047 0.722277 -3.848144 -10.791748 -0.758165 3.624899 -10.698573 17.918409 -10.139104 12.275361 2.09828 10.053091 -43.380329 -1.593921 -32.540318 0.92056 19.629122 0.690238 -33.159618 -5.882109 9.861287 0.702591 -10.936878 -0.360575 7.156213 1e-06 8.774829 -1e-06 -14.812204 17.619678 6.941704 -1.844033 2.498505 -2.507279 -10.163604 4.678948 4.621113 -20.976034 -0.0 5e-06 -21.226292 2.4517 -3.594001 1e-06 -5e-06 -0.0 -1.362683 2.2408 -0.746324 -21.334923 0.584913 3.008327 -13.82122 -0.0 3e-06 -23.887178 -0.249076 -0.839482 -59.94997 2.057661 -0.714942 -0.294025 1.679687 0.833256 -14.218215 0.093214 1.300584 -34.212063 -0.287558 0.967176 -20.033222 0.96454 1.212846 -0.0 -0.0 0.0 -3.44039 0.788235 0.501656 -15.928198 -3.16731 2.999713 -6.338828 0.0 3e-06 -18.123455 3.648186 -4.90567 -4e-06 0.0 -2e-06 -8.841773 9.605983 10.210174 -5.909407 -1.218112 -41.175186 -1.903735 40.747589 0.212496 -26.361099 -3.537819 -36.824791 2.243542 -5.255039 -3.180158 14.282906 -0.826596 6.952511 -1e-06 -12.690609 1e-06 16.347967 -16.943007 1.69933 1.665667 -1.955923 -2.8783 4.727805 -4.17059 4.993929 11.020537 1e-06 2e-06 12.109061 -3.735721 -2.866783 1e-06 1e-06 1e-06 1.291985 -1.92855 -1.498089 14.800142 0.567467 3.865613 14.242584 -1.341738 -6.660658 19.631985 0.143921 -0.648241 49.783619 -0.510348 -6.408491 0.353029 -1.511152 -0.03194 20.222809 3.684308 2.316637 18.787289 2e-06 1e-06 10.751637 -0.479871 1.397907 -1e-06 1e-06 0.0 3.273809 0.305946 -0.58011 21.486834 11.830378 2.266139 8.162937 0.0 1e-06 18.399099 -3.798991 -4.940577 2e-06 -0.0 -1e-06 16.375908 5.429157 -7.420222 -0.097535 -0.972547 23.633446 -12.994173 11.079741 16.331703 1.817733 -1.902297 -6.286732 0.0 1e-06 3e-06 -19.957636 -4.30385 -6.704111 -0.272459 0.907387 17.443747 19.691074 -2.038447 10.494605 -1.451682 1.054022 -5.273592 -0.0 0.0 -1e-06 
0.0 0.0 0.0 0.0 -0.0 0.0 4.261031 104.979515 -7.964659 2.949354 -2.424287 -0.923264 -2.09502 0.170229 3.817541 -0.867165 0.062643 -3.977051 0.123661 -2.775286 1.356908 0.311221 2.347316 -0.778043 -0.532538 0.298572 -3.950078 -2.885902 1.389657 -8.257936 7.7e-05 -2.2e-05 6e-06 0.001035 -0.113352 0.031014 0.733223 -3.833958 -10.786767 -0.74355 3.624982 -10.690205 16.076366 -9.496149 13.350183 -7.687911 8.666637 -39.218277 -1.118705 -24.601198 0.238427 16.829807 0.943871 -31.276983 -5.882112 9.861292 0.70259 -10.93688 -0.360573 7.156214 -3e-06 8.774828 -0.0 -15.318016 17.868362 7.128642 -1.844034 2.498508 -2.50728 -10.16361 4.678949 4.621113 -20.976038 2e-06 3e-06 -21.226301 2.451703 -3.594004 -1e-06 -7e-06 -1e-06 -1.362683 2.2408 -0.746325 -21.334929 0.584915 3.008328 -13.821222 3e-06 1e-06 -23.887184 -0.249073 -0.839484 -60.747791 2.187132 -0.779707 -0.294025 1.679688 0.833255 -14.218219 0.093216 1.300584 -34.212074 -0.287553 0.967171 -20.03323 0.964543 1.212843 -0.0 -0.0 0.0 -3.440391 0.788234 0.501658 -15.928196 -3.167307 2.999712 -6.338831 1e-06 3e-06 -18.123461 3.648187 -4.905673 -5e-06 -1e-06 -2e-06 -7.837179 9.511443 11.153357 2.660126 -1.353751 -36.295734 -1.497234 32.225494 0.425437 -21.69367 -5.613234 -40.143017 2.243544 -5.255044 -3.180161 14.282904 -0.826598 6.952515 1e-06 -12.690616 1e-06 15.163237 -16.9125 2.319938 1.665666 -1.955925 -2.878302 4.727805 -4.170594 4.993931 11.020536 -0.0 2e-06 12.109061 -3.735723 -2.866785 2e-06 1e-06 -0.0 1.291986 -1.928553 -1.49809 14.800142 0.567467 3.865616 14.242584 -1.341743 -6.660663 19.631983 0.143921 -0.648243 50.209877 -0.073463 -6.176177 0.35303 -1.511153 -0.031941 20.222813 3.684311 2.316641 18.787289 1e-06 4e-06 10.751637 -0.479872 1.397908 0.0 0.0 -2e-06 3.273809 0.305949 -0.58011 21.486834 11.830383 2.266143 8.162935 0.0 2e-06 18.399101 -3.798994 -4.94058 3e-06 0.0 -0.0 12.11831 6.667931 -8.946109 -0.094017 -0.845134 24.481287 -14.631189 8.906612 15.307257 1.792812 -1.94189 -5.220829 0.0 0.0 3e-06 -16.996201 -5.767918 -7.813072 -0.17191 0.917464 18.589233 22.173332 1.078421 9.706903 -1.442775 1.152338 -4.83741 0.0 0.0 -1e-06 
0.0 0.0 0.0 0.0 -0.0 0.0 4.249154 106.225166 -8.317764 3.21265 -2.8519 -0.864614 -2.014501 0.004635 4.559118 -0.80308 0.098479 -3.661291 0.096293 -2.782888 1.507398 -0.33474 2.557934 -1.986598 -0.537523 0.513886 -3.882762 -3.285971 1.648223 -9.238341 7.7e-05 -2.2e-05 6e-06 0.010584 -0.078353 0.033474 0.716831 -3.792527 -10.739306 -0.708044 3.652502 -10.648516 14.186741 -8.895119 14.439061 -17.768101 6.731557 -34.89119 -1.010516 -17.660902 -0.102916 12.09861 2.083727 -29.344009 -5.882105 9.861283 0.70259 -10.936872 -0.360575 7.156207 2e-06 8.774822 -1e-06 -15.200109 18.212786 7.102408 -1.844032 2.498503 -2.507278 -10.163599 4.678944 4.621109 -20.976027 -4e-06 1e-06 -21.226286 2.451696 -3.593999 -0.0 -6e-06 -1e-06 -1.362682 2.240797 -0.746323 -21.334911 0.584908 3.008325 -13.821213 -4e-06 3e-06 -23.887165 -0.249078 -0.83948 -59.923393 2.631081 -0.899703 -0.294024 1.679687 0.833256 -14.218208 0.093215 1.300582 -34.212048 -0.287562 0.967175 -20.033211 0.964537 1.212845 -0.0 -1e-06 1e-06 -3.440389 0.788232 0.501656 -15.928185 -3.167308 2.999707 -6.338827 -1e-06 2e-06 -18.123449 3.648182 -4.90567 -3e-06 1e-06 0.0 -6.984671 9.86638 12.08978 11.965965 -0.748608 -31.559822 -1.529225 25.078802 0.178223 -16.027925 -6.655905 -41.507732 2.243541 -5.255037 -3.180159 14.282895 -0.826596 6.952508 -2e-06 -12.690605 2e-06 14.362313 -16.769066 3.092628 1.665665 -1.955922 -2.878299 4.7278 -4.170587 4.993928 11.020526 4e-06 1e-06 12.109052 -3.735715 -2.866782 1e-06 0.0 0.0 1.291985 -1.928549 -1.498089 14.800131 0.567469 3.865611 14.242574 -1.341735 -6.660655 19.631971 0.143925 -0.648242 50.342033 0.081311 -5.725436 0.353029 -1.51115 -0.031939 20.222788 3.684309 2.316634 18.787273 3e-06 5e-06 10.751627 -0.479871 1.397909 1e-06 0.0 -1e-06 3.273808 0.305947 -0.58011 21.48682 11.830376 2.266138 8.162931 1e-06 0.0 18.399088 -3.798988 -4.94057 3e-06 0.0 -1e-06 7.571774 7.410556 -9.7988 -0.117261 -0.765858 25.284792 -18.070267 5.295602 13.861181 1.802836 -1.95982 -4.933313 -0.0 0.0 4e-06 -13.344848 -6.453979 -9.599104 -0.018345 1.019341 21.48403 25.150898 6.79418 8.098113 -1.393411 1.194171 -4.785761 0.0 -0.0 -1e-06 
